<svg width="32" height="33" viewBox="0 0 32 33" fill="none" xmlns="http://www.w3.org/2000/svg">
<path d="M17.712 14.6345H17.7344V14.5993L17.712 14.6345ZM17.712 14.6345H17.7344V14.5993L17.712 14.6345ZM17.712 14.6345H17.7344V14.5993L17.712 14.6345ZM17.712 14.6345H17.7344V14.5993L17.712 14.6345ZM17.712 14.6345H17.7344V14.5993L17.712 14.6345ZM17.712 14.6345H17.7344V14.5993L17.712 14.6345ZM17.712 14.6345H17.7344V14.5993L17.712 14.6345ZM17.712 14.6345H17.7344V14.5993L17.712 14.6345ZM17.712 14.6345H17.7344V14.5993L17.712 14.6345ZM17.712 14.6345H17.7344V14.5993L17.712 14.6345ZM17.712 14.6345H17.7344V14.5993L17.712 14.6345ZM17.712 14.6345H17.7344V14.5993L17.712 14.6345ZM17.712 14.6345H17.7344V14.5993L17.712 14.6345ZM17.712 14.6345H17.7344V14.5993L17.712 14.6345ZM17.712 14.6345H17.7344V14.5993L17.712 14.6345ZM17.712 14.6345H17.7344V14.5993L17.712 14.6345ZM16.256 1.70654C13.3656 1.70654 10.54 2.56366 8.13668 4.16951C5.73336 5.77536 3.86019 8.05782 2.75406 10.7283C1.64793 13.3987 1.35852 16.3372 1.92242 19.1721C2.48632 22.007 3.87821 24.611 5.92207 26.6549C7.96593 28.6987 10.57 30.0906 13.4049 30.6545C16.2398 31.2184 19.1783 30.929 21.8487 29.8229C24.5191 28.7168 26.8016 26.8436 28.4074 24.4403C30.0133 22.0369 30.8704 19.2114 30.8704 16.3209C30.8662 12.4463 29.3251 8.73149 26.5853 5.99168C23.8455 3.25186 20.1307 1.71078 16.256 1.70654ZM12.6016 22.9001C12.6008 22.9649 12.5744 23.0268 12.5283 23.0723C12.4822 23.1178 12.42 23.1433 12.3552 23.1433H9.53921C9.47471 23.1433 9.41285 23.1177 9.36724 23.0721C9.32163 23.0265 9.29601 22.9646 9.29601 22.9001V13.4377C9.29558 13.4055 9.30156 13.3736 9.31359 13.3437C9.32563 13.3138 9.34347 13.2866 9.3661 13.2637C9.38872 13.2408 9.41568 13.2226 9.44539 13.2102C9.47511 13.1977 9.507 13.1913 9.53921 13.1913H12.3552C12.3876 13.1913 12.4196 13.1977 12.4495 13.2101C12.4794 13.2225 12.5066 13.2406 12.5294 13.2635C12.5523 13.2864 12.5705 13.3136 12.5829 13.3434C12.5952 13.3733 12.6016 13.4054 12.6016 13.4377V22.9001ZM10.848 11.9273C10.498 11.9273 10.1559 11.8236 9.86487 11.6291C9.57386 11.4347 9.34705 11.1583 9.21311 10.8349C9.07917 10.5116 9.04413 10.1558 9.11241 9.81251C9.18069 9.46924 9.34923 9.15393 9.59671 8.90645C9.84419 8.65896 10.1595 8.49043 10.5028 8.42215C10.846 8.35386 11.2019 8.38891 11.5252 8.52285C11.8486 8.65678 12.1249 8.8836 12.3194 9.17461C12.5138 9.46561 12.6176 9.80775 12.6176 10.1577C12.618 10.3902 12.5725 10.6205 12.4838 10.8354C12.395 11.0503 12.2647 11.2456 12.1002 11.41C11.9358 11.5744 11.7406 11.7047 11.5257 11.7935C11.3108 11.8823 11.0805 11.9278 10.848 11.9273ZM24.5184 22.9001C24.5176 22.9649 24.4912 23.0268 24.4451 23.0723C24.399 23.1178 24.3368 23.1433 24.272 23.1433H21.456C21.4241 23.1433 21.3924 23.1371 21.3629 23.1248C21.3334 23.1126 21.3066 23.0947 21.284 23.0721C21.2615 23.0495 21.2435 23.0227 21.2313 22.9932C21.2191 22.9637 21.2128 22.9321 21.2128 22.9001V17.8153C21.2128 16.4777 20.736 15.5753 19.5392 15.5753C19.1663 15.5774 18.8031 15.6948 18.4995 15.9113C18.1959 16.1279 17.9666 16.433 17.8432 16.7849C17.7588 17.045 17.722 17.3182 17.7344 17.5913V22.9001C17.7344 22.9655 17.7084 23.0282 17.6622 23.0744C17.616 23.1206 17.5534 23.1465 17.488 23.1465H14.672C14.6398 23.1465 14.6079 23.1402 14.5782 23.1277C14.5485 23.1153 14.5215 23.0971 14.4989 23.0742C14.4763 23.0513 14.4584 23.0241 14.4464 22.9942C14.4344 22.9643 14.4284 22.9323 14.4288 22.9001C14.4288 21.5497 14.464 14.9929 14.4288 13.4505C14.4284 13.4183 14.4344 13.3864 14.4464 13.3565C14.4584 13.3266 14.4763 13.2994 14.4989 13.2765C14.5215 13.2536 14.5485 13.2354 14.5782 13.223C14.6079 13.2105 14.6398 13.2041 14.672 13.2041H17.4816C17.5141 13.2037 17.5463 13.2098 17.5764 13.222C17.6065 13.2343 17.6338 13.2524 17.6568 13.2754C17.6798 13.2983 17.6979 13.3257 17.7101 13.3557C17.7224 13.3858 17.7284 13.4181 17.728 13.4505V14.6121C18.0273 14.0925 18.4632 13.6648 18.9884 13.3754C19.5136 13.086 20.1081 12.946 20.7072 12.9705C22.88 12.9705 24.512 14.3913 24.512 17.4505L24.5184 22.9001ZM17.7344 14.6441V14.6089L17.712 14.6441H17.7344ZM17.712 14.6441H17.7344V14.6089L17.712 14.6441ZM17.712 14.6441H17.7344V14.6089L17.712 14.6441ZM17.712 14.6441H17.7344V14.6089L17.712 14.6441ZM17.712 14.6441H17.7344V14.6089L17.712 14.6441ZM17.712 14.6441H17.7344V14.6089L17.712 14.6441ZM17.712 14.6441H17.7344V14.6089L17.712 14.6441ZM17.712 14.6441H17.7344V14.6089L17.712 14.6441ZM17.712 14.6441H17.7344V14.6089L17.712 14.6441ZM17.712 14.6441H17.7344V14.6089L17.712 14.6441ZM17.712 14.6441H17.7344V14.6089L17.712 14.6441ZM17.712 14.6441H17.7344V14.6089L17.712 14.6441ZM17.712 14.6441H17.7344V14.6089L17.712 14.6441ZM17.712 14.6441H17.7344V14.6089L17.712 14.6441ZM17.712 14.6441H17.7344V14.6089L17.712 14.6441Z" fill="#2A292A"/>
</svg>
