<svg width="32" height="33" viewBox="0 0 32 33" fill="none" xmlns="http://www.w3.org/2000/svg">
<path fill-rule="evenodd" clip-rule="evenodd" d="M32 16.5C32 7.66313 24.8369 0.5 16 0.5C7.16313 0.5 0 7.66313 0 16.5C0 25.3369 7.16313 32.5 16 32.5C24.8369 32.5 32 25.3369 32 16.5ZM17.3388 16.5C17.3388 13.165 14.635 10.4612 11.3 10.4612C7.96565 10.4612 5.2619 13.165 5.2619 16.5C5.2619 19.835 7.96565 22.5387 11.3 22.5387C14.635 22.5387 17.3388 19.835 17.3388 16.5ZM26.7382 16.5C26.7382 13.6919 26.2619 11.415 25.6738 11.415C25.0863 11.415 24.6094 13.6919 24.6094 16.5C24.6094 19.3081 25.0863 21.585 25.6738 21.585C26.2619 21.585 26.7382 19.3081 26.7382 16.5ZM24.0175 16.5C24.0175 13.4281 22.65 10.9381 20.9625 10.9381C19.275 10.9381 17.9069 13.4281 17.9069 16.5C17.9069 19.5719 19.275 22.0619 20.9625 22.0619C22.65 22.0619 24.0175 19.5719 24.0175 16.5Z" fill="#2A292A"/>
</svg>
