<svg width="32" height="33" viewBox="0 0 32 33" fill="none" xmlns="http://www.w3.org/2000/svg">
<g clip-path="url(#clip0_262_12519)">
<path d="M16 0.5C7.164 0.5 0 7.663 0 16.5C0 25.336 7.164 32.5 16 32.5C24.836 32.5 32 25.336 32 16.5C32 7.663 24.836 0.5 16 0.5ZM23.828 13.472C22.892 18.744 17.662 23.209 16.09 24.229C14.517 25.249 13.082 23.821 12.562 22.741C11.966 21.51 10.18 14.833 9.713 14.28C9.245 13.727 7.842 14.833 7.842 14.833L7.162 13.94C7.162 13.94 10.011 10.538 12.179 10.113C14.478 9.662 14.475 13.642 15.027 15.852C15.562 17.99 15.921 19.213 16.388 19.213C16.855 19.213 17.749 18.021 18.726 16.193C19.705 14.363 18.684 12.748 16.77 13.897C17.535 9.305 24.764 8.201 23.828 13.472Z" fill="#2A292A"/>
</g>
<defs>
<clipPath id="clip0_262_12519">
<rect width="32" height="32" fill="white" transform="translate(0 0.5)"/>
</clipPath>
</defs>
</svg>
